<?xml version="1.0" encoding="utf-8"?>
<svg viewBox="0 0 910 825" xmlns="http://www.w3.org/2000/svg" xmlns:bx="https://boxy-svg.com">
  
<path data-id="-1_0" d="M 102.781 301.114 L 102.781 409.428 L 58.696 409.428 L 166.241 576.242 L 273.787 409.431 L 229.703 409.431 L 229.703 248.758 L 102.781 248.758 L 102.781 301.114 Z" style="fill: rgb(40, 136, 226); stroke: rgb(0, 0, 0); stroke-width: 7;" transform="matrix(0, 1, -1, 0, 578.741455, 246.258523)" bx:origin="0.5 0.5"/>

<path data-id="1_0" d="M 680.297 523.886 L 680.297 415.572 L 636.212 415.572 L 743.757 248.758 L 851.303 415.569 L 807.219 415.569 L 807.219 576.242 L 680.297 576.242 L 680.297 523.886 Z" style="fill: rgb(40, 136, 226); stroke: rgb(0, 0, 0); stroke-width: 7;" transform="matrix(0, 1, -1, 0, 1156.257436, -331.257458)" bx:origin="0.5 0.5"/>
  
<path data-id="0_-1" d="M 247.16 51.042 L 247.16 159.356 L 203.075 159.356 L 310.62 326.17 L 418.166 159.359 L 374.082 159.359 L 374.082 -1.314 L 247.16 -1.314 L 247.16 51.042 Z" style="fill: rgb(40, 136, 226); stroke: rgb(0, 0, 0); stroke-width: 7;" transform="matrix(-0.866025, 0.5, -0.5, -0.866025, 660.839675, 147.784571)" bx:origin="0.5 0.5"/>
  
<path data-id="0_1" d="M 535.918 773.958 L 535.918 665.644 L 491.833 665.644 L 599.378 498.83 L 706.924 665.641 L 662.84 665.641 L 662.841 826.314 L 535.919 826.314 L 535.918 773.958 Z" style="fill: rgb(40, 136, 226); stroke: rgb(0, 0, 0); stroke-width: 7;" transform="matrix(-0.866026, 0.5, -0.5, -0.866026, 1449.741554, 936.687146)" bx:origin="0.5 0.5"/>
  
<path data-id="1_-1" d="M 535.918 51.042 L 535.918 159.356 L 491.833 159.356 L 599.378 326.17 L 706.924 159.359 L 662.84 159.359 L 662.84 -1.314 L 535.918 -1.314 L 535.918 51.042 Z" style="fill: rgb(40, 136, 226); stroke: rgb(0, 0, 0); stroke-width: 7;" transform="matrix(-0.866025, -0.5, 0.5, -0.866025, 1037.241573, 602.784102)" bx:origin="0.5 0.5"/>
  
<path data-id="-1_1" d="M 247.16 773.958 L 247.16 665.644 L 203.075 665.644 L 310.62 498.83 L 418.166 665.641 L 374.082 665.641 L 374.082 826.314 L 247.16 826.314 L 247.16 773.958 Z" style="fill: rgb(40, 136, 226); stroke: rgb(0, 0, 0); stroke-width: 7;" transform="matrix(-0.866025, -0.5, 0.5, -0.866025, 248.339513, 1391.686428)" bx:origin="0.5 0.5"/>
</svg>