<svg xmlns="http://www.w3.org/2000/svg" xmlns:se="http://svg-edit.googlecode.com" xmlns:xlink="http://www.w3.org/1999/xlink" xmlns:dc="http://purl.org/dc/elements/1.1/" xmlns:cc="http://creativecommons.org/ns#" xmlns:rdf="http://www.w3.org/1999/02/22-rdf-syntax-ns#" xmlns:inkscape="http://www.inkscape.org/namespaces/inkscape" width="241" height="168">                                    <title>my vector image</title>                                    <!-- Created with Vector Paint - http://www.vectorpaint.yaks.com/ https://chrome.google.com/webstore/detail/hnbpdiengicdefcjecjbnjnoifekhgdo -->                                    <rect id="backgroundrect" width="100%" height="100%" x="0" y="0" fill="#FFFFFF" stroke="none" class=""/>                                <g class="currentLayer"><title>Layer 1</title><g class=""><path fill="#0000ff" stroke="#ffffff" stroke-width="1" stroke-linejoin="round" stroke-dashoffset="" fill-rule="nonzero" marker-start="" marker-mid="" marker-end="" id="svg_1" d="M73.51055012659094,120.67177979727362 L93.55663553616006,80.57961525654946 L147.0128591094063,80.57961525654946 L167.05893824056028,120.67177979727362 L147.0128591094063,160.7639443380008 L93.55663553616006,160.7639443380008 L73.51055012659094,120.67177979727362 z" style="color: rgb(0, 0, 0);" class="" transform="rotate(89.9619369506836 120.28475952148438,120.67178344726564) " stroke-opacity="1" fill-opacity="1" opacity="1"/><path fill="#f0e68c" stroke="#ffffff" stroke-width="1" stroke-linejoin="round" stroke-dashoffset="" fill-rule="nonzero" marker-start="" marker-mid="" marker-end="" d="M153.99441610292456,121.31694506188009 L174.04050151249362,81.22478052115594 L227.49672508573985,81.22478052115594 L247.54280421689396,121.31694506188009 L227.49672508573985,161.40910960260726 L174.04050151249362,161.40910960260726 L153.99441610292456,121.31694506188009 z" style="color: rgb(0, 0, 0);" class="" transform="rotate(89.9619369506836 200.76861572265628,121.31694030761719) " stroke-opacity="1" id="svg_2" fill-opacity="1" opacity="1"/><path fill="#a52a2a" stroke="#ffffff" stroke-width="1" stroke-linejoin="round" stroke-dashoffset="" fill-rule="nonzero" marker-start="" marker-mid="" marker-end="" d="M-6.650743201217438,120.34920404930685 L13.395342208351622,80.2570395085827 L66.85156578159786,80.2570395085827 L86.89764491275196,120.34920404930685 L66.85156578159786,160.44136859003402 L13.395342208351622,160.44136859003402 L-6.650743201217438,120.34920404930685 z" style="color: rgb(0, 0, 0);" class="" transform="rotate(89.9619369506836 40.123382568359375,120.3490447998047) " stroke-opacity="1" id="svg_3" fill-opacity="1" opacity="1"/><path fill="#006400" stroke="#ffffff" stroke-width="1" stroke-linejoin="round" stroke-dashoffset="" fill-rule="nonzero" marker-start="" marker-mid="" marker-end="" d="M33.51054619268439,46.80081842918966 L53.55663160225345,6.708653888465506 L107.01285517549968,6.708653888465506 L127.05893430665378,46.80081842918966 L107.01285517549968,86.89298296991683 L53.55663160225345,86.89298296991683 L33.51054619268439,46.80081842918966 z" style="color: rgb(0, 0, 0);" class="" transform="rotate(89.9619369506836 80.28475952148438,46.80082321166993) " stroke-opacity="1" id="svg_4" fill-opacity="1" opacity="1"/><path fill="#90ee90" stroke="#ffffff" stroke-width="1" stroke-linejoin="round" stroke-dashoffset="" fill-rule="nonzero" marker-start="" marker-mid="" marker-end="" d="M114.80087153629324,47.44597719688986 L134.8469569458623,7.353812656165701 L188.30318051910854,7.353812656165701 L208.34925965026264,47.44597719688986 L188.30318051910854,87.53814173761702 L134.8469569458623,87.53814173761702 L114.80087153629324,47.44597719688986 z" style="color: rgb(0, 0, 0);" class="" transform="rotate(89.9619369506836 161.57507324218747,47.44598007202149) " stroke-opacity="1" id="svg_5" fill-opacity="1" opacity="1"/></g></g></svg>